<svg width="205" height="42" viewBox="0 0 205 42" fill="none" xmlns="http://www.w3.org/2000/svg">
<path d="M28.194 25.6579L18.8672 31.1705V30.1016L25.794 25.9678L27.1624 25.1512V23.5577V13.1663V11.5523L25.7674 10.7405L14.0082 3.89733L14.9077 3.34505L28.194 10.9979V25.6579Z" stroke="#0056F7" stroke-width="5.61348"/>
<path d="M8.44103 16.7802L10.5464 17.9791L6.28068 20.4568L5.16306 21.1059V22.3984V37.2386L3.09793 36.0725V19.8603L8.44103 16.7802Z" stroke="#0056F7" stroke-width="4.49078"/>
<path d="M37.9067 32.646V9.896H47.7266C49.4151 9.896 50.8925 10.2292 52.1588 10.8958C53.4252 11.5623 54.4101 12.4991 55.1137 13.7062C55.8172 14.9133 56.169 16.3241 56.169 17.9385C56.169 19.5677 55.8061 20.9785 55.0803 22.1708C54.362 23.3631 53.3511 24.2814 52.0477 24.9257C50.7518 25.57 49.2373 25.8921 47.5044 25.8921H41.6392V21.0933H46.2603C46.986 21.0933 47.6044 20.9674 48.1154 20.7156C48.6338 20.4564 49.03 20.0898 49.304 19.6159C49.5854 19.1419 49.7261 18.5828 49.7261 17.9385C49.7261 17.2868 49.5854 16.7314 49.304 16.2722C49.03 15.8057 48.6338 15.4502 48.1154 15.2058C47.6044 14.954 46.986 14.8281 46.2603 14.8281H44.083V32.646H37.9067Z" fill="#1C1A1F"/>
<path d="M58.5239 32.646V15.5835H64.4781V18.8272H64.6558C64.9668 17.6275 65.4593 16.7499 66.1332 16.1945C66.8145 15.639 67.6106 15.3613 68.5215 15.3613C68.7881 15.3613 69.051 15.3836 69.3102 15.428C69.5768 15.465 69.8323 15.5206 70.0767 15.5946V20.8267C69.7731 20.723 69.3991 20.6452 68.9547 20.5934C68.5104 20.5416 68.129 20.5156 67.8106 20.5156C67.2107 20.5156 66.6701 20.6526 66.1888 20.9267C65.7148 21.1933 65.3408 21.5709 65.0668 22.0597C64.7928 22.5411 64.6558 23.1076 64.6558 23.7593V32.646H58.5239Z" fill="#1C1A1F"/>
<path d="M72.0873 32.646V15.5835H78.2192V32.646H72.0873ZM75.1532 13.8062C74.3238 13.8062 73.6129 13.5322 73.0204 12.9841C72.428 12.4361 72.1318 11.777 72.1318 11.0068C72.1318 10.2367 72.428 9.57756 73.0204 9.02954C73.6129 8.48153 74.3238 8.20752 75.1532 8.20752C75.9901 8.20752 76.701 8.48153 77.2861 9.02954C77.8785 9.57756 78.1747 10.2367 78.1747 11.0068C78.1747 11.777 77.8785 12.4361 77.2861 12.9841C76.701 13.5322 75.9901 13.8062 75.1532 13.8062Z" fill="#1C1A1F"/>
<path d="M81.3434 32.646V15.5835H87.1642V18.8272H87.3419C87.6974 17.7608 88.3047 16.9165 89.1637 16.2944C90.0228 15.6724 91.0447 15.3613 92.2296 15.3613C93.4294 15.3613 94.4624 15.6798 95.3289 16.3167C96.1953 16.9461 96.7174 17.783 96.8952 18.8272H97.0729C97.3617 17.783 97.9764 16.9461 98.9169 16.3167C99.8574 15.6798 100.961 15.3613 102.227 15.3613C103.864 15.3613 105.189 15.8871 106.204 16.9387C107.226 17.9903 107.737 19.39 107.737 21.1377V32.646H101.605V22.6929C101.605 21.9449 101.416 21.3599 101.039 20.9378C100.661 20.5082 100.154 20.2935 99.5168 20.2935C98.8873 20.2935 98.3874 20.5082 98.0171 20.9378C97.6543 21.3599 97.4728 21.9449 97.4728 22.6929V32.646H91.6076V22.6929C91.6076 21.9449 91.4187 21.3599 91.041 20.9378C90.6634 20.5082 90.1561 20.2935 89.5192 20.2935C89.0971 20.2935 88.7342 20.3897 88.4306 20.5823C88.1269 20.7748 87.89 21.0525 87.7196 21.4154C87.5567 21.7709 87.4752 22.1967 87.4752 22.6929V32.646H81.3434Z" fill="#1C1A1F"/>
<path d="M118.937 32.9571C117.115 32.9571 115.545 32.609 114.227 31.9129C112.916 31.2093 111.905 30.2022 111.194 28.8914C110.491 27.5732 110.139 25.9958 110.139 24.1592C110.139 22.3967 110.495 20.8563 111.206 19.5381C111.917 18.2199 112.92 17.1942 114.216 16.4611C115.512 15.7279 117.041 15.3613 118.804 15.3613C120.092 15.3613 121.259 15.5613 122.303 15.9612C123.347 16.3611 124.239 16.9424 124.98 17.7052C125.721 18.4606 126.291 19.3789 126.691 20.4601C127.091 21.5413 127.291 22.7595 127.291 24.1148V25.5366H112.05V22.1597H121.647C121.64 21.6709 121.514 21.2414 121.27 20.8711C121.033 20.4934 120.711 20.2009 120.303 19.9935C119.903 19.7788 119.448 19.6714 118.937 19.6714C118.441 19.6714 117.985 19.7788 117.571 19.9935C117.156 20.2009 116.823 20.4897 116.571 20.86C116.327 21.2303 116.197 21.6635 116.182 22.1597V25.8032C116.182 26.3513 116.297 26.84 116.527 27.2696C116.756 27.6991 117.086 28.036 117.515 28.2804C117.945 28.5248 118.463 28.647 119.07 28.647C119.492 28.647 119.878 28.5878 120.226 28.4693C120.581 28.3508 120.885 28.1804 121.137 27.9583C121.388 27.7287 121.573 27.4547 121.692 27.1363H127.291C127.098 28.3212 126.643 29.3505 125.924 30.2244C125.206 31.0908 124.254 31.7648 123.069 32.2461C121.892 32.7201 120.514 32.9571 118.937 32.9571Z" fill="#1C1A1F"/>
<path d="M129.704 32.646V9.896H139.568C141.301 9.896 142.756 10.1293 143.934 10.5958C145.119 11.0624 146.011 11.7215 146.611 12.5731C147.218 13.4248 147.522 14.4282 147.522 15.5835C147.522 16.4203 147.337 17.1831 146.966 17.8718C146.603 18.5606 146.092 19.1382 145.433 19.6047C144.774 20.0639 144.004 20.3823 143.123 20.5601V20.7822C144.1 20.8193 144.989 21.0674 145.789 21.5265C146.589 21.9782 147.226 22.604 147.699 23.4038C148.173 24.1962 148.41 25.1293 148.41 26.2031C148.41 27.4473 148.085 28.5544 147.433 29.5246C146.789 30.4947 145.87 31.2575 144.678 31.8129C143.486 32.3683 142.064 32.646 140.412 32.646H129.704ZM135.88 27.7139H138.768C139.805 27.7139 140.583 27.5213 141.101 27.1363C141.619 26.7438 141.879 26.1661 141.879 25.4033C141.879 24.8701 141.756 24.4184 141.512 24.0481C141.268 23.6778 140.92 23.3964 140.468 23.2039C140.024 23.0113 139.487 22.9151 138.857 22.9151H135.88V27.7139ZM135.88 19.0938H138.413C138.953 19.0938 139.431 19.0086 139.846 18.8383C140.261 18.6679 140.583 18.4236 140.812 18.1051C141.049 17.7793 141.168 17.3831 141.168 16.9165C141.168 16.213 140.916 15.6761 140.412 15.3058C139.909 14.9281 139.272 14.7393 138.502 14.7393H135.88V19.0938Z" fill="#1C1A1F"/>
<path d="M155.442 32.9126C154.353 32.9126 153.391 32.7349 152.554 32.3794C151.724 32.0165 151.073 31.4685 150.599 30.7354C150.125 30.0022 149.888 29.0691 149.888 27.9361C149.888 27.003 150.047 26.2068 150.366 25.5477C150.684 24.8812 151.128 24.3369 151.699 23.9148C152.269 23.4927 152.932 23.1705 153.687 22.9484C154.45 22.7262 155.272 22.5818 156.153 22.5152C157.108 22.4411 157.875 22.3522 158.452 22.2486C159.037 22.1375 159.46 21.9857 159.719 21.7931C159.978 21.5932 160.108 21.3303 160.108 21.0044V20.96C160.108 20.5156 159.937 20.175 159.597 19.938C159.256 19.701 158.819 19.5825 158.286 19.5825C157.701 19.5825 157.223 19.7121 156.853 19.9713C156.49 20.2231 156.271 20.6119 156.197 21.1377H150.554C150.628 20.1009 150.958 19.1456 151.543 18.2717C152.135 17.3905 152.998 16.6869 154.131 16.1611C155.264 15.6279 156.679 15.3613 158.375 15.3613C159.597 15.3613 160.693 15.5057 161.663 15.7946C162.633 16.076 163.459 16.4722 164.14 16.9832C164.821 17.4867 165.34 18.0792 165.695 18.7605C166.058 19.4344 166.239 20.1676 166.239 20.96V32.646H160.507V30.2466H160.374C160.034 30.8835 159.619 31.3982 159.13 31.7907C158.649 32.1832 158.097 32.4683 157.475 32.646C156.86 32.8238 156.183 32.9126 155.442 32.9126ZM157.442 29.0469C157.908 29.0469 158.345 28.9506 158.752 28.7581C159.167 28.5655 159.504 28.2878 159.763 27.9249C160.022 27.5621 160.152 27.1214 160.152 26.603V25.1812C159.989 25.2478 159.815 25.3108 159.63 25.37C159.452 25.4293 159.26 25.4848 159.052 25.5366C158.852 25.5885 158.638 25.6366 158.408 25.6811C158.186 25.7255 157.953 25.7662 157.708 25.8032C157.234 25.8773 156.845 25.9995 156.542 26.1698C156.246 26.3327 156.023 26.5364 155.875 26.7808C155.735 27.0178 155.664 27.2844 155.664 27.5806C155.664 28.0545 155.831 28.4174 156.164 28.6692C156.497 28.921 156.923 29.0469 157.442 29.0469Z" fill="#1C1A1F"/>
<path d="M184.765 21.1377H179.122C179.093 20.7896 178.971 20.4897 178.756 20.2379C178.541 19.9861 178.263 19.7936 177.923 19.6603C177.589 19.5196 177.219 19.4492 176.812 19.4492C176.286 19.4492 175.834 19.5455 175.457 19.7381C175.079 19.9306 174.894 20.2046 174.901 20.5601C174.894 20.8119 175.001 21.0451 175.223 21.2599C175.453 21.4747 175.894 21.6413 176.545 21.7598L180.011 22.3819C181.759 22.7003 183.058 23.2372 183.91 23.9926C184.769 24.7405 185.202 25.744 185.21 27.003C185.202 28.2175 184.84 29.2728 184.121 30.1688C183.41 31.0575 182.436 31.7462 181.2 32.235C179.97 32.7164 178.567 32.9571 176.99 32.9571C174.383 32.9571 172.343 32.4239 170.869 31.3574C169.403 30.291 168.584 28.884 168.414 27.1363H174.501C174.583 27.6769 174.849 28.0953 175.301 28.3915C175.76 28.6803 176.338 28.8247 177.034 28.8247C177.597 28.8247 178.06 28.7285 178.423 28.5359C178.793 28.3434 178.982 28.0694 178.989 27.7139C178.982 27.388 178.819 27.1288 178.5 26.9363C178.189 26.7438 177.701 26.5882 177.034 26.4697L174.013 25.9365C172.272 25.6329 170.969 25.0553 170.102 24.2036C169.236 23.352 168.806 22.256 168.814 20.9155C168.806 19.7306 169.117 18.7272 169.747 17.9052C170.384 17.0757 171.291 16.4463 172.468 16.0167C173.653 15.5798 175.057 15.3613 176.679 15.3613C179.145 15.3613 181.089 15.8723 182.51 16.8943C183.94 17.9163 184.691 19.3307 184.765 21.1377Z" fill="#1C1A1F"/>
<path d="M195.735 32.9571C193.913 32.9571 192.343 32.609 191.025 31.9129C189.714 31.2093 188.703 30.2022 187.992 28.8914C187.289 27.5732 186.937 25.9958 186.937 24.1592C186.937 22.3967 187.293 20.8563 188.004 19.5381C188.715 18.2199 189.718 17.1942 191.014 16.4611C192.31 15.7279 193.839 15.3613 195.602 15.3613C196.89 15.3613 198.057 15.5613 199.101 15.9612C200.145 16.3611 201.037 16.9424 201.778 17.7052C202.519 18.4606 203.089 19.3789 203.489 20.4601C203.889 21.5413 204.089 22.7595 204.089 24.1148V25.5366H188.848V22.1597H198.445C198.438 21.6709 198.312 21.2414 198.068 20.8711C197.831 20.4934 197.509 20.2009 197.101 19.9935C196.701 19.7788 196.246 19.6714 195.735 19.6714C195.239 19.6714 194.783 19.7788 194.369 19.9935C193.954 20.2009 193.621 20.4897 193.369 20.86C193.125 21.2303 192.995 21.6635 192.98 22.1597V25.8032C192.98 26.3513 193.095 26.84 193.325 27.2696C193.554 27.6991 193.884 28.036 194.313 28.2804C194.743 28.5248 195.261 28.647 195.868 28.647C196.29 28.647 196.676 28.5878 197.024 28.4693C197.379 28.3508 197.683 28.1804 197.935 27.9583C198.186 27.7287 198.371 27.4547 198.49 27.1363H204.089C203.896 28.3212 203.441 29.3505 202.722 30.2244C202.004 31.0908 201.052 31.7648 199.867 32.2461C198.69 32.7201 197.312 32.9571 195.735 32.9571Z" fill="#1C1A1F"/>
</svg>
